<svg xmlns="http://www.w3.org/2000/svg" viewBox="0 0 435.15 383.41"><defs><style>.cls-1{fill:#fff100;}.cls-1,.cls-2{stroke:#231815;stroke-miterlimit:10;stroke-width:3px;}.cls-2{fill:#231815;}</style></defs><g id="圖層_2" data-name="圖層 2"><path class="cls-1" d="M38.43,416.65c-4,12.51-15,47.9-3.9,91,3,11.5,11.86,46,38.51,68.67,60.11,51.19,166.47,5.13,184.78-2.79,77.7-33.65,117.49-94.32,138.44-127.28,16-25.23,95.29-149.91,53.59-203.75-49.61-64.06-250.1,27.35-261,32.37A344.39,344.39,0,0,0,136.12,305C102.3,328.54,56.9,359.75,38.43,416.65Z" transform="translate(-28.19 -218.22)"/></g><g id="圖層_3" data-name="圖層 3"><path class="cls-1" d="M243.55,579.41" transform="translate(-28.19 -218.22)"/><path class="cls-2" d="M147,297.77a522.69,522.69,0,0,1,48,130.32A523.74,523.74,0,0,1,205.16,591.9l60.19-21.79a708.38,708.38,0,0,0-25.14-162.95,708.63,708.63,0,0,0-51.35-132.3l90.36-34.61a474.19,474.19,0,0,1,57.29,146.39,473.11,473.11,0,0,1,9.06,125.84l47.8-61.71a462.44,462.44,0,0,0-8.29-97.2,464.06,464.06,0,0,0-45.45-128.79l45.86-5A290.75,290.75,0,0,1,426.11,395q12.34-28.08,24.7-56.18A121.06,121.06,0,0,0,426.88,226" transform="translate(-28.19 -218.22)"/></g></svg>